<svg width="324" height="277" viewBox="0 0 324 277" fill="none" xmlns="http://www.w3.org/2000/svg">
<g filter="url(#filter0_d_23_975)">
<rect x="12" y="12" width="300" height="253" rx="8" fill="white"/>
<rect x="12.5" y="12.5" width="299" height="252" rx="7.5" stroke="url(#paint0_linear_23_975)"/>
<rect x="12" y="12" width="300" height="241" fill="url(#paint1_linear_23_975)"/>
<path d="M80.2481 218V200.72H83.1401V218H80.2481ZM102.299 218V210.128C102.299 209.24 102.079 208.548 101.639 208.052C101.199 207.548 100.603 207.296 99.8507 207.296C99.3867 207.296 98.9707 207.404 98.6027 207.62C98.2347 207.828 97.9427 208.14 97.7267 208.556C97.5107 208.964 97.4027 209.452 97.4027 210.02L96.1187 209.264C96.1107 208.368 96.3107 207.58 96.7187 206.9C97.1347 206.212 97.6947 205.676 98.3987 205.292C99.1027 204.908 99.8867 204.716 100.751 204.716C102.183 204.716 103.279 205.148 104.039 206.012C104.807 206.868 105.191 207.996 105.191 209.396V218H102.299ZM86.7107 218V205.04H89.2667V209.06H89.6267V218H86.7107ZM94.5227 218V210.164C94.5227 209.26 94.3027 208.556 93.8627 208.052C93.4227 207.548 92.8227 207.296 92.0627 207.296C91.3267 207.296 90.7347 207.548 90.2867 208.052C89.8467 208.556 89.6267 209.212 89.6267 210.02L88.3307 209.156C88.3307 208.316 88.5387 207.56 88.9547 206.888C89.3707 206.216 89.9307 205.688 90.6347 205.304C91.3467 204.912 92.1427 204.716 93.0227 204.716C93.9907 204.716 94.7987 204.924 95.4467 205.34C96.1027 205.748 96.5907 206.308 96.9107 207.02C97.2387 207.724 97.4027 208.52 97.4027 209.408V218H94.5227ZM111.945 218.36C111.009 218.36 110.217 218.184 109.569 217.832C108.921 217.472 108.429 216.996 108.093 216.404C107.765 215.812 107.601 215.16 107.601 214.448C107.601 213.824 107.705 213.264 107.913 212.768C108.121 212.264 108.441 211.832 108.873 211.472C109.305 211.104 109.865 210.804 110.553 210.572C111.073 210.404 111.681 210.252 112.377 210.116C113.081 209.98 113.841 209.856 114.657 209.744C115.481 209.624 116.341 209.496 117.237 209.36L116.205 209.948C116.213 209.052 116.013 208.392 115.605 207.968C115.197 207.544 114.509 207.332 113.541 207.332C112.957 207.332 112.393 207.468 111.849 207.74C111.305 208.012 110.925 208.48 110.709 209.144L108.069 208.316C108.389 207.22 108.997 206.34 109.893 205.676C110.797 205.012 112.013 204.68 113.541 204.68C114.693 204.68 115.705 204.868 116.577 205.244C117.457 205.62 118.109 206.236 118.533 207.092C118.765 207.548 118.905 208.016 118.953 208.496C119.001 208.968 119.025 209.484 119.025 210.044V218H116.493V215.192L116.913 215.648C116.329 216.584 115.645 217.272 114.861 217.712C114.085 218.144 113.113 218.36 111.945 218.36ZM112.521 216.056C113.177 216.056 113.737 215.94 114.201 215.708C114.665 215.476 115.033 215.192 115.305 214.856C115.585 214.52 115.773 214.204 115.869 213.908C116.021 213.54 116.105 213.12 116.121 212.648C116.145 212.168 116.157 211.78 116.157 211.484L117.045 211.748C116.173 211.884 115.425 212.004 114.801 212.108C114.177 212.212 113.641 212.312 113.193 212.408C112.745 212.496 112.349 212.596 112.005 212.708C111.669 212.828 111.385 212.968 111.153 213.128C110.921 213.288 110.741 213.472 110.613 213.68C110.493 213.888 110.433 214.132 110.433 214.412C110.433 214.732 110.513 215.016 110.673 215.264C110.833 215.504 111.065 215.696 111.369 215.84C111.681 215.984 112.065 216.056 112.521 216.056ZM127.597 224.12C126.877 224.12 126.185 224.008 125.521 223.784C124.865 223.56 124.273 223.236 123.745 222.812C123.217 222.396 122.785 221.892 122.449 221.3L125.113 219.98C125.361 220.452 125.709 220.8 126.157 221.024C126.613 221.256 127.097 221.372 127.609 221.372C128.209 221.372 128.745 221.264 129.217 221.048C129.689 220.84 130.053 220.528 130.309 220.112C130.573 219.704 130.697 219.192 130.681 218.576V214.892H131.041V205.04H133.573V218.624C133.573 218.952 133.557 219.264 133.525 219.56C133.501 219.864 133.457 220.16 133.393 220.448C133.201 221.288 132.833 221.976 132.289 222.512C131.745 223.056 131.069 223.46 130.261 223.724C129.461 223.988 128.573 224.12 127.597 224.12ZM127.345 218.36C126.153 218.36 125.113 218.06 124.225 217.46C123.337 216.86 122.649 216.044 122.161 215.012C121.673 213.98 121.429 212.816 121.429 211.52C121.429 210.208 121.673 209.04 122.161 208.016C122.657 206.984 123.357 206.172 124.261 205.58C125.165 204.98 126.229 204.68 127.453 204.68C128.685 204.68 129.717 204.98 130.549 205.58C131.389 206.172 132.025 206.984 132.457 208.016C132.889 209.048 133.105 210.216 133.105 211.52C133.105 212.808 132.889 213.972 132.457 215.012C132.025 216.044 131.381 216.86 130.525 217.46C129.669 218.06 128.609 218.36 127.345 218.36ZM127.789 215.768C128.565 215.768 129.189 215.592 129.661 215.24C130.141 214.88 130.489 214.38 130.705 213.74C130.929 213.1 131.041 212.36 131.041 211.52C131.041 210.672 130.929 209.932 130.705 209.3C130.489 208.66 130.149 208.164 129.685 207.812C129.221 207.452 128.621 207.272 127.885 207.272C127.109 207.272 126.469 207.464 125.965 207.848C125.461 208.224 125.089 208.736 124.849 209.384C124.609 210.024 124.489 210.736 124.489 211.52C124.489 212.312 124.605 213.032 124.837 213.68C125.077 214.32 125.441 214.828 125.929 215.204C126.417 215.58 127.037 215.768 127.789 215.768ZM142.83 218.36C141.518 218.36 140.366 218.076 139.374 217.508C138.382 216.94 137.606 216.152 137.046 215.144C136.494 214.136 136.218 212.976 136.218 211.664C136.218 210.248 136.49 209.02 137.034 207.98C137.578 206.932 138.334 206.12 139.302 205.544C140.27 204.968 141.39 204.68 142.662 204.68C144.006 204.68 145.146 204.996 146.082 205.628C147.026 206.252 147.726 207.136 148.182 208.28C148.638 209.424 148.81 210.772 148.698 212.324H145.83V211.268C145.822 209.86 145.574 208.832 145.086 208.184C144.598 207.536 143.83 207.212 142.782 207.212C141.598 207.212 140.718 207.58 140.142 208.316C139.566 209.044 139.278 210.112 139.278 211.52C139.278 212.832 139.566 213.848 140.142 214.568C140.718 215.288 141.558 215.648 142.662 215.648C143.374 215.648 143.986 215.492 144.498 215.18C145.018 214.86 145.418 214.4 145.698 213.8L148.554 214.664C148.058 215.832 147.29 216.74 146.25 217.388C145.218 218.036 144.078 218.36 142.83 218.36ZM138.366 212.324V210.14H147.282V212.324H138.366ZM163.776 218C162.92 218.16 162.08 218.228 161.256 218.204C160.44 218.188 159.708 218.04 159.06 217.76C158.412 217.472 157.92 217.02 157.584 216.404C157.288 215.844 157.132 215.272 157.116 214.688C157.1 214.104 157.092 213.444 157.092 212.708V201.44H159.972V212.54C159.972 213.06 159.976 213.516 159.984 213.908C160 214.3 160.084 214.62 160.236 214.868C160.524 215.348 160.984 215.616 161.616 215.672C162.248 215.728 162.968 215.696 163.776 215.576V218ZM154.74 207.308V205.04H163.776V207.308H154.74ZM171.631 218.36C170.335 218.36 169.203 218.068 168.235 217.484C167.267 216.9 166.515 216.096 165.979 215.072C165.451 214.04 165.187 212.856 165.187 211.52C165.187 210.16 165.459 208.968 166.003 207.944C166.547 206.92 167.303 206.12 168.271 205.544C169.239 204.968 170.359 204.68 171.631 204.68C172.935 204.68 174.071 204.972 175.039 205.556C176.007 206.14 176.759 206.948 177.295 207.98C177.831 209.004 178.099 210.184 178.099 211.52C178.099 212.864 177.827 214.052 177.283 215.084C176.747 216.108 175.995 216.912 175.027 217.496C174.059 218.072 172.927 218.36 171.631 218.36ZM171.631 215.648C172.783 215.648 173.639 215.264 174.199 214.496C174.759 213.728 175.039 212.736 175.039 211.52C175.039 210.264 174.755 209.264 174.187 208.52C173.619 207.768 172.767 207.392 171.631 207.392C170.855 207.392 170.215 207.568 169.711 207.92C169.215 208.264 168.847 208.748 168.607 209.372C168.367 209.988 168.247 210.704 168.247 211.52C168.247 212.776 168.531 213.78 169.099 214.532C169.675 215.276 170.519 215.648 171.631 215.648ZM192.855 218.36C191.127 218.36 189.647 217.984 188.415 217.232C187.183 216.472 186.235 215.416 185.571 214.064C184.915 212.712 184.587 211.144 184.587 209.36C184.587 207.576 184.915 206.008 185.571 204.656C186.235 203.304 187.183 202.252 188.415 201.5C189.647 200.74 191.127 200.36 192.855 200.36C194.847 200.36 196.507 200.86 197.835 201.86C199.163 202.852 200.095 204.192 200.631 205.88L197.715 206.684C197.379 205.556 196.807 204.676 195.999 204.044C195.191 203.404 194.143 203.084 192.855 203.084C191.695 203.084 190.727 203.344 189.951 203.864C189.183 204.384 188.603 205.116 188.211 206.06C187.827 206.996 187.631 208.096 187.623 209.36C187.623 210.624 187.815 211.728 188.199 212.672C188.591 213.608 189.175 214.336 189.951 214.856C190.727 215.376 191.695 215.636 192.855 215.636C194.143 215.636 195.191 215.316 195.999 214.676C196.807 214.036 197.379 213.156 197.715 212.036L200.631 212.84C200.095 214.528 199.163 215.872 197.835 216.872C196.507 217.864 194.847 218.36 192.855 218.36ZM208.99 218.36C207.694 218.36 206.562 218.068 205.594 217.484C204.626 216.9 203.874 216.096 203.338 215.072C202.81 214.04 202.546 212.856 202.546 211.52C202.546 210.16 202.818 208.968 203.362 207.944C203.906 206.92 204.662 206.12 205.63 205.544C206.598 204.968 207.718 204.68 208.99 204.68C210.294 204.68 211.43 204.972 212.398 205.556C213.366 206.14 214.118 206.948 214.654 207.98C215.19 209.004 215.458 210.184 215.458 211.52C215.458 212.864 215.186 214.052 214.642 215.084C214.106 216.108 213.354 216.912 212.386 217.496C211.418 218.072 210.286 218.36 208.99 218.36ZM208.99 215.648C210.142 215.648 210.998 215.264 211.558 214.496C212.118 213.728 212.398 212.736 212.398 211.52C212.398 210.264 212.114 209.264 211.546 208.52C210.978 207.768 210.126 207.392 208.99 207.392C208.214 207.392 207.574 207.568 207.07 207.92C206.574 208.264 206.206 208.748 205.966 209.372C205.726 209.988 205.606 210.704 205.606 211.52C205.606 212.776 205.89 213.78 206.458 214.532C207.034 215.276 207.878 215.648 208.99 215.648ZM223.298 218.36C222.106 218.36 221.066 218.06 220.178 217.46C219.29 216.86 218.602 216.044 218.114 215.012C217.626 213.98 217.382 212.816 217.382 211.52C217.382 210.208 217.626 209.04 218.114 208.016C218.61 206.984 219.31 206.172 220.214 205.58C221.118 204.98 222.182 204.68 223.406 204.68C224.638 204.68 225.67 204.98 226.502 205.58C227.342 206.172 227.978 206.984 228.41 208.016C228.842 209.048 229.058 210.216 229.058 211.52C229.058 212.808 228.842 213.972 228.41 215.012C227.978 216.044 227.334 216.86 226.478 217.46C225.622 218.06 224.562 218.36 223.298 218.36ZM223.742 215.768C224.518 215.768 225.142 215.592 225.614 215.24C226.094 214.88 226.442 214.38 226.658 213.74C226.882 213.1 226.994 212.36 226.994 211.52C226.994 210.672 226.882 209.932 226.658 209.3C226.442 208.66 226.102 208.164 225.638 207.812C225.174 207.452 224.574 207.272 223.838 207.272C223.062 207.272 222.422 207.464 221.918 207.848C221.414 208.224 221.042 208.736 220.802 209.384C220.562 210.024 220.442 210.736 220.442 211.52C220.442 212.312 220.558 213.032 220.79 213.68C221.03 214.32 221.394 214.828 221.882 215.204C222.37 215.58 222.99 215.768 223.742 215.768ZM226.994 218V208.904H226.634V200.72H229.55V218H226.994ZM238.806 218.36C237.494 218.36 236.342 218.076 235.35 217.508C234.358 216.94 233.582 216.152 233.022 215.144C232.47 214.136 232.194 212.976 232.194 211.664C232.194 210.248 232.466 209.02 233.01 207.98C233.554 206.932 234.31 206.12 235.278 205.544C236.246 204.968 237.366 204.68 238.638 204.68C239.982 204.68 241.122 204.996 242.058 205.628C243.002 206.252 243.702 207.136 244.158 208.28C244.614 209.424 244.786 210.772 244.674 212.324H241.806V211.268C241.798 209.86 241.55 208.832 241.062 208.184C240.574 207.536 239.806 207.212 238.758 207.212C237.574 207.212 236.694 207.58 236.118 208.316C235.542 209.044 235.254 210.112 235.254 211.52C235.254 212.832 235.542 213.848 236.118 214.568C236.694 215.288 237.534 215.648 238.638 215.648C239.35 215.648 239.962 215.492 240.474 215.18C240.994 214.86 241.394 214.4 241.674 213.8L244.53 214.664C244.034 215.832 243.266 216.74 242.226 217.388C241.194 218.036 240.054 218.36 238.806 218.36ZM234.342 212.324V210.14H243.258V212.324H234.342Z" fill="black"/>
<rect x="104" y="52" width="116" height="116" rx="10.5455" fill="#DBECFF"/>
<path opacity="0.4" d="M187.884 153.859C197.812 153.859 205.859 145.812 205.859 135.884C205.859 125.957 197.812 117.909 187.884 117.909C177.957 117.909 169.909 125.957 169.909 135.884C169.909 145.812 177.957 153.859 187.884 153.859Z" fill="#0051B0"/>
<path d="M180.694 140.827C180.353 140.827 180.011 140.702 179.741 140.432L176.146 136.837C175.625 136.316 175.625 135.453 176.146 134.932L179.741 131.337C180.263 130.815 181.125 130.815 181.647 131.337C182.168 131.858 182.168 132.721 181.647 133.242L179.004 135.884L181.647 138.527C182.168 139.048 182.168 139.911 181.647 140.432C181.377 140.702 181.036 140.827 180.694 140.827Z" fill="#0051B0"/>
<path d="M195.074 140.827C194.733 140.827 194.391 140.702 194.122 140.432C193.6 139.911 193.6 139.048 194.122 138.527L196.764 135.884L194.122 133.242C193.6 132.721 193.6 131.858 194.122 131.337C194.643 130.815 195.506 130.815 196.027 131.337L199.622 134.932C200.143 135.453 200.143 136.316 199.622 136.837L196.027 140.432C195.757 140.702 195.416 140.827 195.074 140.827Z" fill="#0051B0"/>
<path d="M186.087 141.42C185.907 141.42 185.727 141.385 185.565 141.313C184.882 141.025 184.559 140.234 184.864 139.533L188.459 131.139C188.747 130.456 189.538 130.132 190.221 130.438C190.904 130.725 191.228 131.516 190.922 132.217L187.327 140.612C187.111 141.115 186.608 141.42 186.087 141.42Z" fill="#0051B0"/>
<path opacity="0.4" d="M154.091 76.584V87.5309L151.161 85.0144C149.759 83.81 147.494 83.81 146.092 85.0144L138.614 91.4315C137.212 92.6359 134.947 92.6359 133.545 91.4315L132.934 90.9282C131.658 89.8138 129.627 89.7059 128.189 90.6766L119.345 96.6084L119.147 96.7522C118.482 95.3142 118.14 93.6065 118.14 91.6472V76.584C118.14 70.041 122.041 66.1404 128.584 66.1404H143.647C150.19 66.1404 154.091 70.041 154.091 76.584Z" fill="#0051B0"/>
<path d="M130.723 81.2037C133.086 81.2037 135.001 79.2883 135.001 76.9256C135.001 74.5628 133.086 72.6475 130.723 72.6475C128.36 72.6475 126.445 74.5628 126.445 76.9256C126.445 79.2883 128.36 81.2037 130.723 81.2037Z" fill="#0051B0"/>
<path d="M154.091 87.5311V91.6474C154.091 98.1904 150.19 102.091 143.647 102.091H128.584C124 102.091 120.693 100.168 119.147 96.7524L119.345 96.6086L128.189 90.6768C129.627 89.7061 131.658 89.814 132.934 90.9284L133.545 91.4317C134.947 92.6361 137.212 92.6361 138.614 91.4317L146.092 85.0146C147.494 83.8102 149.759 83.8102 151.161 85.0146L154.091 87.5311Z" fill="#0051B0"/>
<path d="M162 116.471C159.529 116.471 157.596 115.242 156.285 114.028V115.008C156.285 115.574 155.815 116.043 155.249 116.043C154.683 116.043 154.214 115.574 154.214 115.008V111.211C154.214 110.645 154.683 110.176 155.249 110.176H158.673C159.239 110.176 159.708 110.645 159.708 111.211C159.708 111.777 159.239 112.247 158.673 112.247H157.43C158.452 113.268 160.04 114.4 162 114.4C165.617 114.4 168.557 111.46 168.557 107.843C168.557 107.277 169.027 106.808 169.593 106.808C170.159 106.808 170.628 107.277 170.628 107.843C170.628 112.606 166.763 116.471 162 116.471ZM154.407 108.878C153.841 108.878 153.372 108.409 153.372 107.843C153.372 103.08 157.237 99.2148 162 99.2148C164.968 99.2148 167.149 100.499 168.557 101.727V100.678C168.557 100.112 169.027 99.6428 169.593 99.6428C170.159 99.6428 170.628 100.112 170.628 100.678V104.461C170.628 104.502 170.628 104.544 170.628 104.571C170.614 104.723 170.573 104.861 170.504 104.985C170.435 105.11 170.338 105.22 170.214 105.317C170.117 105.386 170.007 105.441 169.883 105.482C169.786 105.51 169.689 105.524 169.593 105.524H166.238C165.672 105.524 165.203 105.054 165.203 104.488C165.203 103.922 165.672 103.453 166.238 103.453H167.384C166.279 102.431 164.499 101.299 162.028 101.299C158.411 101.299 155.47 104.24 155.47 107.857C155.443 108.409 154.973 108.878 154.407 108.878Z" fill="#0051B0"/>
</g>
<defs>
<filter id="filter0_d_23_975" x="0" y="0" width="324" height="277" filterUnits="userSpaceOnUse" color-interpolation-filters="sRGB">
<feFlood flood-opacity="0" result="BackgroundImageFix"/>
<feColorMatrix in="SourceAlpha" type="matrix" values="0 0 0 0 0 0 0 0 0 0 0 0 0 0 0 0 0 0 127 0" result="hardAlpha"/>
<feOffset/>
<feGaussianBlur stdDeviation="6"/>
<feComposite in2="hardAlpha" operator="out"/>
<feColorMatrix type="matrix" values="0 0 0 0 0.00391556 0 0 0 0 0.194332 0 0 0 0 0.417659 0 0 0 0.07 0"/>
<feBlend mode="normal" in2="BackgroundImageFix" result="effect1_dropShadow_23_975"/>
<feBlend mode="normal" in="SourceGraphic" in2="effect1_dropShadow_23_975" result="shape"/>
</filter>
<linearGradient id="paint0_linear_23_975" x1="147.641" y1="12" x2="117.429" y2="261.391" gradientUnits="userSpaceOnUse">
<stop stop-color="#999999" stop-opacity="0.32"/>
<stop offset="1" stop-color="#333333" stop-opacity="0"/>
</linearGradient>
<linearGradient id="paint1_linear_23_975" x1="162" y1="12" x2="162" y2="253" gradientUnits="userSpaceOnUse">
<stop stop-color="#0051B0" stop-opacity="0.1"/>
<stop offset="1" stop-color="#0051B0" stop-opacity="0"/>
</linearGradient>
</defs>
</svg>
